<svg xmlns="http://www.w3.org/2000/svg" viewBox="0 0 794.6 179.1"><path fill="#616366" d="M132.4 92v39.1H49.2V48h83.2v39.1h41.1l0-55.3c0-13.8-11.1-24.9-24.9-24.9H32.9C19.2 6.8 8 18 8 31.7 l0 115.6c0 13.8 11.2 24.9 24.9 24.9h115.6c13.8 0 24.9-11.2 24.9-24.9l0-55.3H132.4z"/><rect x="54.1" y="52.8" fill="#2C71B9" width="73.4" height="73.4"/><path fill="#616366" d="M226.9 120.9c-8.2-8.2-12.3-18.7-12.3-31.3c0-12.6 4.1-23.2 12.3-31.3C235.2 50 248 46 265.2 46 c10.1 0 20.2 1 30.2 3.1l1.2 0.2v16.3l-2-0.6c-4.7-1.4-8.6-2.5-11.6-3.1c-3-0.6-5.8-1.2-8.5-1.5c-2.7-0.3-5.3-0.5-8-0.5 c-10.3 0-17.4 2.9-21.8 8.3c-4.6 5.6-6.8 12.5-6.9 21c0 8.9 2.6 15.8 7.7 21.2c5.1 5.3 12.6 8 23.1 8c8.7 0 17.6-1.9 26.6-5.8 l2.1-0.9v14.6v1l-0.9 0.4c-4.1 1.6-7.7 2.6-10.8 3.2c-3 0.6-6.5 1.1-10.3 1.4c-3.8 0.4-7.6 0.6-11.3 0.6 C247.7 133.2 235.2 129.1 226.9 120.9"/><path fill="#616366" d="M345.1 132.9c-8.6 0-16.1-1.5-22.6-4.7c-6.4-3.1-11.4-7.7-14.8-13.6c-3.4-5.9-5.1-12.6-5.1-20 c0-7.4 1.7-14 5.1-20c3.4-5.9 8.4-10.5 14.9-13.7c6.5-3.1 14-4.7 22.5-4.7c8.5 0 16 1.5 22.5 4.7c6.5 3.1 11.5 7.7 14.9 13.7 c3.4 5.9 5.1 12.6 5.1 20c0 7.4-1.7 14.1-5.1 20c-3.4 5.9-8.3 10.5-14.8 13.6C361.2 131.3 353.7 132.9 345.1 132.9L345.1 132.9 M345.1 120.3c7.4 0 12.6-2.5 16.1-7.6c3.6-5.3 5.4-11.2 5.4-18.1c0-6.9-1.8-12.8-5.5-18.1c-3.6-5.1-8.7-7.6-16.1-7.6 c-7.4 0-12.6 2.5-16.1 7.6c-3.6 5.2-5.4 11.2-5.4 18.1c0 6.8 1.8 12.8 5.4 18.1C332.5 117.7 337.7 120.2 345.1 120.3"/><path fill="#616366" d="M399.9 131.2V58h32.7c6.3 0 12.1 0.7 15.6 2.1c3.5 1.4 6.3 3.7 8.3 6.6c2 3 3.1 6.4 3.1 10.1 c0 4.4-1.5 8.7-4.4 12.5c-2.6 3.4-6 6.1-10.4 8.1l27.1 33.6h-25.3l-20.1-28.7h-6.9v28.7H399.9z M422 89.9c6.8 0 11.2-1.3 13.3-3.5 c2.4-2.4 3.5-4.9 3.5-7.8c0-2.5-0.8-4.2-2.6-5.7c-1.5-1.3-5.7-2.3-12.1-2.2h-4.4v19.2H422z"/><polygon fill="#616366" points="479,131.2 479,58 536.1,58 536.1,70.7 498.9,70.7 498.9,87.2 531.6,87.2 531.6,99.9 498.9,99.9 498.9,118.2 536.3,118.2 536.3,131.2"/><polygon fill="#616366" points="729.4,131.2 729.4,58 786.5,58 786.5,70.7 749.1,70.7 749.1,87.2 781.9,87.2 781.9,99.9 749.1,99.9 749.1,118.2 786.6,118.2 786.6,131.2"/><path fill="#616366" d="M547.1 130.2V113l2 0.7c7.2 2.6 12.5 4.1 15.8 4.6c3.5 0.5 6.7 0.8 9.6 0.8c5.2 0 8.9-1.1 11.1-2.9 c2.4-1.9 3.4-3.9 3.4-6.3c0-1.9-0.6-3.5-1.9-5.1c-1.1-1.4-4.7-3.7-10.4-6.5l-6.2-3c-9-4.3-15.1-8.3-18.5-12.3 c-3.4-3.9-5.1-8.5-5.1-13.7c0-6.5 2.9-12.2 8.5-16.6c5.7-4.6 13.7-6.8 23.8-6.8c7.6 0 16 0.9 25.4 2.8l1.2 0.2v16.1l-1.9-0.6 c-9.5-3-16.9-4.5-22.2-4.5c-4.5 0-7.7 0.9-9.7 2.3c-2.2 1.6-3 3.2-3 5.1c0 1.5 0.5 2.8 1.9 4.3c1 1.3 4.6 3.6 10.3 6.3l6.7 3.2 c10.3 5 16.8 9.3 20 13.3c2.9 3.9 4.4 8.4 4.4 13.3c0 7-3.1 13.1-9.2 18c-6.2 5-15.7 7.3-28.4 7.3C567 133.1 557.1 132 547.1 130.2"/><rect x="623.6" y="58" fill="#616366" width="19.8" height="73.1"/><polygon fill="#616366" points="676.5,131.2 676.5,70.7 650.1,70.7 650.1,58 722.7,58 722.7,70.7 696.3,70.7 696.3,131.2"/></svg>